<mxfile host="app.diagrams.net" modified="2023-10-11T14:52:02.550Z" agent="Mozilla/5.0 (Windows NT 10.0; Win64; x64; rv:109.0) Gecko/20100101 Firefox/118.0" etag="Y36oSLdozJ0fISYyIvlI" version="22.0.4" type="github">
  <diagram id="R2lEEEUBdFMjLlhIrx00" name="Page-1">
    <mxGraphModel dx="1434" dy="820" grid="1" gridSize="10" guides="1" tooltips="1" connect="1" arrows="1" fold="1" page="1" pageScale="1" pageWidth="850" pageHeight="1100" math="0" shadow="0" extFonts="Permanent Marker^https://fonts.googleapis.com/css?family=Permanent+Marker">
      <root>
        <mxCell id="0" />
        <mxCell id="1" parent="0" />
        <mxCell id="Iet_jWAJXBXSNBwaDiyG-1" value="Guerra" style="whiteSpace=wrap;html=1;align=center;" parent="1" vertex="1">
          <mxGeometry x="80" y="180" width="100" height="40" as="geometry" />
        </mxCell>
        <mxCell id="Iet_jWAJXBXSNBwaDiyG-3" value="Bando" style="whiteSpace=wrap;html=1;align=center;" parent="1" vertex="1">
          <mxGeometry x="325" y="300" width="100" height="40" as="geometry" />
        </mxCell>
        <mxCell id="Iet_jWAJXBXSNBwaDiyG-4" value="Participación" style="whiteSpace=wrap;html=1;align=center;" parent="1" vertex="1">
          <mxGeometry x="480" y="210" width="100" height="40" as="geometry" />
        </mxCell>
        <mxCell id="Iet_jWAJXBXSNBwaDiyG-5" value="Ganador" style="whiteSpace=wrap;html=1;align=center;" parent="1" vertex="1">
          <mxGeometry x="620" y="320" width="100" height="40" as="geometry" />
        </mxCell>
        <mxCell id="Iet_jWAJXBXSNBwaDiyG-6" value="&lt;u&gt;ID&lt;/u&gt;" style="ellipse;whiteSpace=wrap;html=1;align=center;" parent="1" vertex="1">
          <mxGeometry x="20" y="120" width="70" height="30" as="geometry" />
        </mxCell>
        <mxCell id="AuWt5UhLa8Dw6wnDY-w8-1" value="inicio" style="ellipse;whiteSpace=wrap;html=1;" parent="1" vertex="1">
          <mxGeometry x="190" y="125" width="80" height="40" as="geometry" />
        </mxCell>
        <mxCell id="Iet_jWAJXBXSNBwaDiyG-7" value="nombre" style="ellipse;whiteSpace=wrap;html=1;align=center;" parent="1" vertex="1">
          <mxGeometry x="70" y="85" width="60" height="30" as="geometry" />
        </mxCell>
        <mxCell id="AuWt5UhLa8Dw6wnDY-w8-2" value="finalizacion" style="ellipse;whiteSpace=wrap;html=1;" parent="1" vertex="1">
          <mxGeometry x="140" y="85" width="80" height="40" as="geometry" />
        </mxCell>
        <mxCell id="v6sRIm-AOsYsS7XoriZ_-5" value="&lt;u&gt;ID&lt;/u&gt;" style="ellipse;whiteSpace=wrap;html=1;align=center;" vertex="1" parent="1">
          <mxGeometry x="300" y="100" width="70" height="30" as="geometry" />
        </mxCell>
        <mxCell id="v6sRIm-AOsYsS7XoriZ_-6" value="" style="endArrow=none;html=1;rounded=0;entryX=0.16;entryY=-0.025;entryDx=0;entryDy=0;entryPerimeter=0;exitX=0.643;exitY=0.867;exitDx=0;exitDy=0;exitPerimeter=0;" edge="1" parent="1" source="Iet_jWAJXBXSNBwaDiyG-2">
          <mxGeometry relative="1" as="geometry">
            <mxPoint x="320" y="140" as="sourcePoint" />
            <mxPoint x="376" y="159" as="targetPoint" />
          </mxGeometry>
        </mxCell>
        <mxCell id="Iet_jWAJXBXSNBwaDiyG-2" value="País" style="whiteSpace=wrap;html=1;align=center;" parent="1" vertex="1">
          <mxGeometry x="370" y="160" width="100" height="40" as="geometry" />
        </mxCell>
        <mxCell id="v6sRIm-AOsYsS7XoriZ_-8" value="año independencia" style="ellipse;whiteSpace=wrap;html=1;align=center;" vertex="1" parent="1">
          <mxGeometry x="410" y="50" width="90" height="49" as="geometry" />
        </mxCell>
        <mxCell id="v6sRIm-AOsYsS7XoriZ_-11" value="nombre" style="ellipse;whiteSpace=wrap;html=1;align=center;" vertex="1" parent="1">
          <mxGeometry x="348" y="69" width="60" height="30" as="geometry" />
        </mxCell>
        <mxCell id="v6sRIm-AOsYsS7XoriZ_-13" value="año anexión" style="ellipse;whiteSpace=wrap;html=1;align=center;" vertex="1" parent="1">
          <mxGeometry x="510" y="50" width="90" height="49" as="geometry" />
        </mxCell>
        <mxCell id="v6sRIm-AOsYsS7XoriZ_-15" value="&lt;u&gt;ID&lt;/u&gt;" style="ellipse;whiteSpace=wrap;html=1;align=center;" vertex="1" parent="1">
          <mxGeometry x="262" y="380" width="70" height="30" as="geometry" />
        </mxCell>
        <mxCell id="v6sRIm-AOsYsS7XoriZ_-19" value="nombre" style="ellipse;whiteSpace=wrap;html=1;align=center;" vertex="1" parent="1">
          <mxGeometry x="340" y="390" width="60" height="30" as="geometry" />
        </mxCell>
        <mxCell id="v6sRIm-AOsYsS7XoriZ_-23" value="&lt;u&gt;ID&lt;/u&gt;" style="ellipse;whiteSpace=wrap;html=1;align=center;" vertex="1" parent="1">
          <mxGeometry x="510" y="150" width="70" height="30" as="geometry" />
        </mxCell>
        <mxCell id="v6sRIm-AOsYsS7XoriZ_-26" value="&lt;div&gt;ID Bando&lt;/div&gt;" style="ellipse;whiteSpace=wrap;html=1;align=center;" vertex="1" parent="1">
          <mxGeometry x="570" y="245" width="70" height="30" as="geometry" />
        </mxCell>
        <mxCell id="v6sRIm-AOsYsS7XoriZ_-28" value="ID Guerra" style="ellipse;whiteSpace=wrap;html=1;align=center;" vertex="1" parent="1">
          <mxGeometry x="600" y="175" width="70" height="30" as="geometry" />
        </mxCell>
        <mxCell id="v6sRIm-AOsYsS7XoriZ_-29" value="&lt;div&gt;ID Pais&lt;/div&gt;" style="ellipse;whiteSpace=wrap;html=1;align=center;" vertex="1" parent="1">
          <mxGeometry x="620" y="215" width="70" height="30" as="geometry" />
        </mxCell>
        <mxCell id="v6sRIm-AOsYsS7XoriZ_-30" value="&lt;div&gt;ID Gerra&lt;/div&gt;" style="ellipse;whiteSpace=wrap;html=1;align=center;" vertex="1" parent="1">
          <mxGeometry x="730" y="310" width="70" height="30" as="geometry" />
        </mxCell>
        <mxCell id="v6sRIm-AOsYsS7XoriZ_-31" value="&lt;u&gt;ID&lt;/u&gt;" style="ellipse;whiteSpace=wrap;html=1;align=center;" vertex="1" parent="1">
          <mxGeometry x="670" y="280" width="70" height="30" as="geometry" />
        </mxCell>
        <mxCell id="v6sRIm-AOsYsS7XoriZ_-33" value="&lt;div&gt;ID Pais&lt;br&gt;&lt;/div&gt;" style="ellipse;whiteSpace=wrap;html=1;align=center;" vertex="1" parent="1">
          <mxGeometry x="730" y="350" width="70" height="30" as="geometry" />
        </mxCell>
      </root>
    </mxGraphModel>
  </diagram>
</mxfile>
